<?xml version="1.0" standalone="no"?>
<!DOCTYPE svg PUBLIC "-//W3C//DTD SVG 20010904//EN"
 "http://www.w3.org/TR/2001/REC-SVG-20010904/DTD/svg10.dtd">
<svg version="1.0" xmlns="http://www.w3.org/2000/svg"
 width="228.000000pt" height="228.000000pt" viewBox="0 0 228.000000 228.000000"
 preserveAspectRatio="xMidYMid meet">
<metadata>
Created by potrace 1.14, written by Peter Selinger 2001-2017
</metadata>
<g transform="translate(0.000000,228.000000) scale(0.100000,-0.100000)"
fill="#000000" stroke="none">
<path d="M1133 2248 c-6 -7 -13 -25 -17 -40 -3 -15 -15 -30 -26 -33 -24 -8
-26 -40 -4 -53 9 -5 14 -14 10 -21 -11 -17 -23 -13 -29 11 -7 25 -19 18 -24
-15 -2 -12 -17 -35 -33 -52 -17 -17 -30 -41 -30 -52 0 -30 -19 -39 -35 -17 -9
12 -15 14 -16 7 -1 -7 -2 -17 -3 -22 0 -5 -16 -25 -33 -45 -18 -19 -33 -46
-33 -59 0 -35 -12 -41 -32 -15 -10 13 -16 16 -13 7 4 -9 -10 -33 -35 -61 -22
-25 -40 -54 -40 -64 0 -9 -8 -26 -17 -37 -17 -18 -17 -19 0 -32 10 -7 20 -20
21 -28 1 -8 7 -21 13 -29 6 -7 15 -26 18 -41 l7 -28 -90 4 -90 4 -40 -57 c-22
-31 -54 -67 -71 -81 -17 -13 -31 -28 -31 -34 0 -16 -78 -85 -97 -85 -14 -1
-11 -6 11 -23 17 -12 35 -22 40 -24 6 -1 20 -4 31 -7 11 -2 23 -5 27 -5 4 -1
15 -14 25 -31 11 -20 28 -32 50 -36 27 -5 33 -11 34 -33 3 -132 8 -231 13
-255 3 -16 8 -50 12 -75 9 -67 41 -173 72 -238 59 -124 182 -295 274 -380 22
-21 49 -45 58 -54 10 -9 43 -35 74 -58 70 -52 62 -55 210 79 62 56 97 92 144
150 21 25 39 47 42 50 13 13 70 100 92 140 85 157 125 348 124 597 -1 100 1
119 12 110 8 -6 12 -23 10 -38 -4 -23 -2 -26 11 -19 24 13 71 60 71 70 0 5 8
7 19 5 10 -2 37 8 60 21 42 25 53 44 26 44 -22 0 -135 117 -182 190 l-42 64
-78 1 c-86 1 -100 13 -69 60 9 13 16 31 16 39 0 7 7 16 15 20 21 8 19 30 -5
51 -11 10 -20 26 -20 36 0 9 -16 36 -35 59 -19 23 -35 47 -35 53 0 7 -4 7 -12
-1 -19 -19 -25 -14 -32 22 -4 19 -20 50 -36 71 -16 20 -31 41 -34 48 -3 8 -9
6 -17 -7 -9 -15 -13 -16 -20 -5 -5 8 -9 23 -9 34 0 12 -16 38 -35 58 -19 20
-35 44 -35 54 0 15 -2 15 -19 -1 -11 -10 -21 -13 -25 -7 -4 5 -2 12 4 16 18
11 11 52 -9 58 -13 3 -21 15 -23 38 -3 35 -19 47 -35 27z m-411 -836 c-27 -4
-37 2 -27 17 4 8 13 7 28 -1 l22 -13 -23 -3z m872 -3 c-2 -4 -13 -5 -24 -2
-19 5 -19 6 -3 18 13 10 20 10 25 2 4 -6 5 -14 2 -18z"/>
</g>
</svg>
